<mxfile host="app.diagrams.net" modified="2021-06-01T18:56:30.443Z" agent="5.0 (Macintosh; Intel Mac OS X 10_15_7) AppleWebKit/537.36 (KHTML, like Gecko) Chrome/90.0.4430.212 Safari/537.36" etag="ST-dJbCd_gNyr7badFZE" version="14.7.3" type="github">
  <diagram name="Page-1" id="822b0af5-4adb-64df-f703-e8dfc1f81529">
    <mxGraphModel dx="2350" dy="1274" grid="1" gridSize="10" guides="1" tooltips="1" connect="1" arrows="1" fold="1" page="1" pageScale="1" pageWidth="1100" pageHeight="850" background="none" math="0" shadow="0">
      <root>
        <mxCell id="0" />
        <mxCell id="1" parent="0" />
        <mxCell id="aHuM83rfYxPHw6iz90zK-1" value="" style="aspect=fixed;pointerEvents=1;shadow=0;dashed=0;html=1;strokeColor=none;labelPosition=center;verticalLabelPosition=bottom;verticalAlign=top;align=center;fillColor=#00188D;shape=mxgraph.azure.computer" vertex="1" parent="1">
          <mxGeometry x="350" y="380" width="66.67" height="60" as="geometry" />
        </mxCell>
        <mxCell id="aHuM83rfYxPHw6iz90zK-2" value="Attacker IP - Kali machine - 192.168.1.8" style="text;html=1;align=center;verticalAlign=middle;resizable=0;points=[];autosize=1;strokeColor=none;" vertex="1" parent="1">
          <mxGeometry x="245" y="450" width="230" height="20" as="geometry" />
        </mxCell>
        <mxCell id="aHuM83rfYxPHw6iz90zK-5" value="Listening Port - 80" style="text;html=1;strokeColor=none;fillColor=none;align=center;verticalAlign=middle;whiteSpace=wrap;rounded=0;" vertex="1" parent="1">
          <mxGeometry x="250" y="477" width="100" height="20" as="geometry" />
        </mxCell>
        <mxCell id="aHuM83rfYxPHw6iz90zK-6" value="" style="aspect=fixed;pointerEvents=1;shadow=0;dashed=0;html=1;strokeColor=none;labelPosition=center;verticalLabelPosition=bottom;verticalAlign=top;align=center;fillColor=#00188D;shape=mxgraph.azure.computer" vertex="1" parent="1">
          <mxGeometry x="1570" y="380" width="66.67" height="60" as="geometry" />
        </mxCell>
        <mxCell id="aHuM83rfYxPHw6iz90zK-7" value="Victim IP - 192.168.1.105" style="text;html=1;strokeColor=none;fillColor=none;align=center;verticalAlign=middle;whiteSpace=wrap;rounded=0;" vertex="1" parent="1">
          <mxGeometry x="1540" y="460" width="190" height="10" as="geometry" />
        </mxCell>
        <mxCell id="aHuM83rfYxPHw6iz90zK-8" value="" style="endArrow=classic;html=1;" edge="1" parent="1">
          <mxGeometry width="50" height="50" relative="1" as="geometry">
            <mxPoint x="1550" y="420" as="sourcePoint" />
            <mxPoint x="430" y="420" as="targetPoint" />
          </mxGeometry>
        </mxCell>
        <mxCell id="aHuM83rfYxPHw6iz90zK-9" value="Victim connects to attacker on listening port" style="text;html=1;strokeColor=none;fillColor=none;align=center;verticalAlign=middle;whiteSpace=wrap;rounded=0;" vertex="1" parent="1">
          <mxGeometry x="960" y="356" width="280" height="60" as="geometry" />
        </mxCell>
        <mxCell id="aHuM83rfYxPHw6iz90zK-11" value="" style="shape=image;html=1;verticalAlign=top;verticalLabelPosition=bottom;labelBackgroundColor=#ffffff;imageAspect=0;aspect=fixed;image=https://cdn1.iconfinder.com/data/icons/DarkGlass_Reworked/128x128/apps/user-3.png" vertex="1" parent="1">
          <mxGeometry x="222" y="322" width="128" height="128" as="geometry" />
        </mxCell>
        <mxCell id="aHuM83rfYxPHw6iz90zK-12" value="" style="shape=image;html=1;verticalAlign=top;verticalLabelPosition=bottom;labelBackgroundColor=#ffffff;imageAspect=0;aspect=fixed;image=https://cdn1.iconfinder.com/data/icons/prettyoffice8/128/User-blue.png" vertex="1" parent="1">
          <mxGeometry x="1700" y="322" width="128" height="128" as="geometry" />
        </mxCell>
        <mxCell id="aHuM83rfYxPHw6iz90zK-14" value="" style="shape=image;verticalLabelPosition=bottom;labelBackgroundColor=#ffffff;verticalAlign=top;aspect=fixed;imageAspect=0;image=data:image/png,iVBORw0KGgoAAAANSUhEUgAAAJ0AAACnCAYAAAALx14dAAABQ2lDQ1BJQ0MgUHJvZmlsZQAAKJFjYGASSCwoyGFhYGDIzSspCnJ3UoiIjFJgf8rAxsDIwMvAzaCWmFxc4BgQ4ANUwgCjUcG3a0C1QHBZF2TW7QIbftfi44c7IzuOOB+fq4apHgVwpaQWJwPpP0CcnFxQVMLAwJgAZCuXlxSA2C1AtkgR0FFA9gwQOx3CXgNiJ0HYB8BqQoKcgewrQLZAckZiCpD9BMjWSUIST0diQ+0FAU6n1LxABR9nFwJuJRmUpFaUgGjn/ILKosz0jBIFR2AIpSp45iXr6SgYGRgZMjCAwhui+nMQOBwZxfYhxPKXMDBYfGNgYJ6IEEuawsCwvY2BQeIWQkxlHgMDPzCsth0qSCxKhDuA8RtLcZqxEYTNY8/AwHr3///PGgwM7BMZGP5O/P//9+L///8uBpp/m4HhQCUAC6tf70ORm/oAAABWZVhJZk1NACoAAAAIAAGHaQAEAAAAAQAAABoAAAAAAAOShgAHAAAAEgAAAESgAgAEAAAAAQAAAJ2gAwAEAAAAAQAAAKcAAAAAQVNDSUkAAABTY3JlZW5zaG901rO9DwAAAdZpVFh0WE1MOmNvbS5hZG9iZS54bXAAAAAAADx4OnhtcG1ldGEgeG1sbnM6eD0iYWRvYmU6bnM6bWV0YS8iIHg6eG1wdGs9IlhNUCBDb3JlIDYuMC4wIj4KICAgPHJkZjpSREYgeG1sbnM6cmRmPSJodHRwOi8vd3d3LnczLm9yZy8xOTk5LzAyLzIyLXJkZi1zeW50YXgtbnMjIj4KICAgICAgPHJkZjpEZXNjcmlwdGlvbiByZGY6YWJvdXQ9IiIKICAgICAgICAgICAgeG1sbnM6ZXhpZj0iaHR0cDovL25zLmFkb2JlLmNvbS9leGlmLzEuMC8iPgogICAgICAgICA8ZXhpZjpQaXhlbFlEaW1lbnNpb24+MTY3PC9leGlmOlBpeGVsWURpbWVuc2lvbj4KICAgICAgICAgPGV4aWY6UGl4ZWxYRGltZW5zaW9uPjE1NzwvZXhpZjpQaXhlbFhEaW1lbnNpb24+CiAgICAgICAgIDxleGlmOlVzZXJDb21tZW50PlNjcmVlbnNob3Q8L2V4aWY6VXNlckNvbW1lbnQ+CiAgICAgIDwvcmRmOkRlc2NyaXB0aW9uPgogICA8L3JkZjpSREY+CjwveDp4bXBtZXRhPgqUPCb2AAAOV0lEQVR4Ae2dbWwcRxnHn9s7n1/Pb7FTktCakMRJ+pK3KlUckpKqSUpCq5SElpYCArUVQjQVFSoCtVKEEB+oQAj4Qj+FSoBADZQXUUVUlIoGgVLaNEGNKXUpcdQWk6RyY2LHL+djnr0dd32e25vb252bmX1Winw3O7s7859fZue/z+xcamJiogC0kQIKFXAUXosuRQq4ChB0BIJyBQg65ZLTBQk6YkC5AgSdcsnpggQdMaBcAYJOueR0QYKOGFCuAEGnXHK6IEFHDChXgKBTLjldkKAjBpQrQNApl5wuSNARA8oVIOiUS04XJOiIAeUKEHTKJacLEnTEgHIFCDrlktMFCTpiQLkCGVVXnHrtbTh363chvbxL1SXpOqUKTM1A5tql0P2Nu8HpaCndq+y7MujmasQqTpt6BQrj05Du64L2g3vrChzWXD10abqjK0cuPwupzmZo/9JeyK5aovzypRckAkoVsfA79nKt9++ApoHVWtSOoNOiGeIrRGFsElo+tQVyBwbiu0iVZyboqhTMpOwIXMP2FdDxwF6tik3QadUc0RUGgcusY0710TuiO2lEZyLoIhJSq9Mw44BOtePhfXV3qiJdCDqRKianMeBw08WpiqQk6ESqGJyGTrXtoY9o41RFUhJ0IlUMTeNOte22zVrXgKDTunnkC4fANe1eq51TFdWAoBOpYlia+2jkhj43xGVC0Qk6E1opqIyeU83dvwvSvR1BObXZR9Bp0xQhCoJONZtxnWrjdVeFOEF9DiHo6qN7JFd1neoXd2rtVEUVJehEqhiQlh9+142p6u5URVISdCJVNE9zH418YiO037dT85KKi0fQiXXRNhWBw5gqTsZMNWW1LWdQwQi6IHV02+eLqZriVEUSEnQiVXRMQ6fKZl3rHFOVlY2gk1Wqzvnyb45B24O7jXOqItkIOpEqmqWhU207uANMdKoiKQk6kSoapZnuVEVSEnQiVXRJY+O4Bi+maqpTFUlJ0IlU0SGNAef0trmPRkx2qiIpCTqRKhqkYYjLBqcqkpKgE6lS5zQ0DrlHbrPCqYqkJOhEqtQxDY2DTU5VJCVBJ1KlTmkIHM7+NTWmKisbQSerVMz5EDgbnapINoJOpIrqNOZU3QVuWBDfNqcqklL9qk2iUiQ8DUNci350rxYrKqloCurpVKgccA10qh3fvsNapyqqOkEnUkVRWhKcqkhKgk6kioI0BK553wbrnapISoJOpErMaQgczv7N3XezsbN/a5GIoKtFvTDHek4VV1RKglMVSUTQiVSJK40BhzHVzkP7E+NURVISdCJVYkpz31N9eE+inKpISoJOpEoMaTiO023t3xiqKXVKgk5KptoyIXAYU819ekdtJ7LkaIIu5obkTlWHHw2JuarSpyfopKUKkZEZB772b1Kdqkg1gk6kSkRpNs/+rUUigq4W9QKOtX32b0DVK+4i6CpKVH0G295TrV6B4CP0g46Ng4D/42XH74ZsaBxaP7slkTFV2SZSNp/ujdmLsGH4B9DXsWaubK2pDLQ6WWhLNUDOYf+gEXpSTdDOvnc6TdALLdBTaIJF6WaAAsDiTGvx2FIoNfllRe5UkxpTnWvYCh+UQcfL0ZEqLm81A8Xe69LsFFyCKRjJA1wqFH8LNo+EsW28wBLZlmNwfjDTAUudNhfKq9I56HXeA3JxuhU6C1kYnR538+NCM8o39h8BZ/8mOaYqq7ly6HjBMrAQDA4kz9Od4p+AQXnJ/YdgIpTYG2IvuSTdAlekWuF9qWZYlemG1U4XLM43QmdDSxFCRQDi7N+eIw8kOqb6XmsFf6obdMHFWriXQ+oHE3vJIfbvZOE84K06M+lAo5NxQVw/0wO3ZldAP4MQN7cXjAlAPvvXpMWmFyqsLsUY6ESSiECcnJ1hII66ID42cQp6WY/44ez74Z6G1bA23VM0KaKThUzDcVzukb3WrKgUUoaqDjMaunI1RRixR+S94rGpN+HI5BuwYrwFDjSuhIH0UtecLGa3ZNcph+wBETiMqbbtu6FcUShdoICV0JXWkwOI5uXw5UE4DIOwKdsL650eF0DsAV0jMnu59NDy35lx4Gv/Oh0t5fPRngUKJAI6XmvsAbtTje7XoelReKlwDo6mh6F/ugs2ZXphW2YZ9Ke7YLQSfN5zw+5v3p3Y2b9c0zB/EwWdXyAOIJqRE7MjcGJ6BJ6A03BT9kr4ZOOaInz4CEZw6+VOlYL4fkXlPy98biF/rBU5ET7+Dyv0q8nX4cZ3n4KvjD8Pg4XRYh29ng3HfziOw/dUyamGb/7E9nTlJOPjv99PngH8d3vjCrgl0+c6XwQOZ/+27lpf7nBKl1CAoCsjEne+v5gcgmemzsCB/ErYduNW2MZm/9q0FGuZ6seanPjbayV10XhkWMTuJ5mz8NVrCvD1k8/BhQkv3FbpYNovVICgE8riS5xlxF2egvb9eyDPwnJHX38V9v7scfjhi8d8mehjNQoQdEFqIXAzM5DadzPMtufYg+TiBAQ85KG/PAt3PvUEHBs5G3QG2idQgKATiDKXxICDgQ1Q6P/APOBw/7rWHJwZfQe+/PQROPSnp+HV8yNzh9GHYAXISJTTZ2oKYO0qgM3rFgBXeshjp/4GgxfOwV3962D/NRtLd9P3EgWopysRxP2KwPUtA9g1wB4Op0U55qXxXu9bx5+jsd48ZcRfCLpSXXAc19kOwMZxLnC+cVxpVtH3w6decMd6dLsVqVNMI+j82iBwbHMO7A4FHD8VjvU2MIf7y1dO8CT661OAoONicKd6y/YFTpVnqeYv3nLv+eNv3dstPdebrxxBx/Vgz+LKOVWepdq/CB4+WvnC0SfJ3frEI+hQjHE2j+661VJO1aed1EduMj73u58TeJ5iBB06VQQOnWqMG0Yz7jr+B3qYzDRONnQIHHOqzlY2a0Ti0UhoJtm5G7q6oC3dAAdffB5+PPRK6FPZcGByHw77nGppiCvqhkXgUtkm97QI3nf+edL9vGfZcljUnLyp7snt6ZhxSH30pkicahCkDT09c8DxfBy87/8jmY9UkgkdGoftm6Cw4sqKIS4OSpi/IuD4eRC837x9Bg6d+DNPSszf5EGH4zgGHGyJOUbKxnH8llqOpqSCl6wxnRdTda5e6a2kUg6H2tLTThrSVyyROgkHDzM/uGZjIsZ4yenpuFPdORD7OM7pLi5lIUUdy8TBwzFeEqIXyYFuZtaNqcbuVAXGQQY+Dt6Tp1+SyW50nmRAx4yDaPZv1C0XZBxkroXgPT4ybP1zPPuh84xD3E4VHy5XMg6y4OFzPJunwdsNHQLHZ//GHHHIShoHWfAwcmHrnDx7ocOIA5v9OxfiqnIypgwcbh4vxCWdXzIj3mof/ftxK8GzEzpvbpwTt1P1gIvitipicWhizAXPNkdrJ3QsxOXc+/HYH434Y6oiaGpNw94OwbMtXGYXdNjDsXGcCU5VFkj+KMWmmSl2QYctWeY9VdlGlsoXkVOVuhbLhOCho7XFWNgDHTrVVcuLs39lWzNMPgZclE5VtgjcWNgwvrMDOgQOXxvk76ka5lRlwbNlfGc+dN5kTPjM7TW9NijT8HEbh0plsGV8ZzZ0HnDoVMO8GF2pkf37aw1x+c9V6+dfn/2X0eM7c6HzgEtF9J5qEAg6AYe9Hd5mf3p2KKjIWu8zFzpcUWnztbHP/o0qpholBfw2a2p81kzocLo5LnCDKyrFudXJqcpUCcHD+KyJm3nQoVPFdxv2s/VG4ty8EFecl4ji3Ca+Y2EWdAhchs2wxxWVYt7q7VRlqoe93bP/fcu4aVDmQIfGIZsFNA5JcqqV4PtffhqeeWvYqGnuZkCHwOHav7s+JFyKtVLDVLVfcYirqrIJMnNTMXjxgmCvnklmQBfDikrC5tDYOAjL60s0qbfTHzocx8W0opKvzdxbdj1iqvPKEPKLab2d3tAhcFWs/RuyzVzg0DiYvCF4X3v5r0ZUQV/ocBzHnCrO/o3dOPgWuDGi1coUEk2FCQ+M9YUOF7hJWIirDEvSyab0dnpC572nKvrREOkWkMioU0xVorjSWXSfZawfdDiOU7Ciko4xVWmqAjLiLRZnoeg82VMv6BA4A99TDWBA+S68xf5n6jLo/NxOH+gQOEWzf019NCJLMI9SyOZXnU8P6NyIQ3GBGxVOVbXIqq+HvR3GZHV9kaf+0CFw+J7q5++M/z3VkCsqqYYmiuthb/fC6PkoThX5OeoLHQLHNhXvqdpqHMoRgb2droaivtD5Z/+WUy+KdINjqrVUH6e162go6gcdD3Hh7F8Ghf9Xo2sRuvRYXIrV9BBXaZ2q+f690y9Xk11J3vqsOezdVsP+vKW0Mgxmx5IQl3SdfRnxFou9nW6b+p7OA07Fa4P4aCSuFZV0a8ig8ugWoVAPneMoi6kGNURS9nFDoVN91UN3/dU0+1cxAXiL1emZnVrotl4fy89bzmvDhDrVeRoIvuj0zE4ddIs6AT7m/Uy5QJRIkgi4sjK+NjZadp/qHeqg4zWzdEUlXj0d/+K47vToO9rcYtVDF1OrmPCeakxVlzotzjw5l2eTKjTYrIDO1smYUfKBsdh/j12M8pShz2U+dGwcR8/i5Nofx3U6TO40GzoyDnK0sVx8XHf+Uv0jFOZCx4BLckxVmjZfRnxep8O4zljoyDj4aKriow7jOiOhI+NQBWUlWXV4Xqd8lglONaplwx/wJeMQTkE+rkMzsai5JdxJIjgqNTExUYjgPHQKUkBaASNvr9K1o4xaKkDQadksdheKoLO7fbWsHUGnZbPYXSiCzu721bJ2BJ2WzWJ3oQg6u9tXy9oRdFo2i92FIujsbl8ta0fQadksdheKoLO7fbWsHUGnZbPYXSiCzu721bJ2BJ2WzWJ3oQg6u9tXy9oRdFo2i92FIujsbl8ta/d/iD4O5aQwV2sAAAAASUVORK5CYII=;" vertex="1" parent="1">
          <mxGeometry x="1150" y="170" width="157" height="167" as="geometry" />
        </mxCell>
        <mxCell id="aHuM83rfYxPHw6iz90zK-15" value="192" style="text;html=1;strokeColor=none;fillColor=none;align=center;verticalAlign=middle;whiteSpace=wrap;rounded=0;" vertex="1" parent="1">
          <mxGeometry x="1300" y="640" width="40" height="20" as="geometry" />
        </mxCell>
        <mxCell id="aHuM83rfYxPHw6iz90zK-19" value="" style="endArrow=none;dashed=1;html=1;fillColor=#e51400;strokeColor=#B20000;strokeWidth=4;" edge="1" parent="1">
          <mxGeometry width="50" height="50" relative="1" as="geometry">
            <mxPoint x="155" y="120" as="sourcePoint" />
            <mxPoint x="1920" y="120" as="targetPoint" />
          </mxGeometry>
        </mxCell>
        <mxCell id="aHuM83rfYxPHw6iz90zK-21" value="" style="endArrow=none;dashed=1;html=1;fillColor=#e51400;strokeColor=#B20000;strokeWidth=4;" edge="1" parent="1">
          <mxGeometry width="50" height="50" relative="1" as="geometry">
            <mxPoint x="160" y="560" as="sourcePoint" />
            <mxPoint x="1925" y="560" as="targetPoint" />
          </mxGeometry>
        </mxCell>
        <mxCell id="aHuM83rfYxPHw6iz90zK-22" value="" style="endArrow=none;dashed=1;html=1;fillColor=#e51400;strokeColor=#B20000;strokeWidth=4;" edge="1" parent="1">
          <mxGeometry width="50" height="50" relative="1" as="geometry">
            <mxPoint x="150" y="118.5" as="sourcePoint" />
            <mxPoint x="150" y="560" as="targetPoint" />
          </mxGeometry>
        </mxCell>
        <mxCell id="aHuM83rfYxPHw6iz90zK-23" value="" style="endArrow=none;dashed=1;html=1;fillColor=#e51400;strokeColor=#B20000;strokeWidth=4;" edge="1" parent="1">
          <mxGeometry width="50" height="50" relative="1" as="geometry">
            <mxPoint x="1920" y="120" as="sourcePoint" />
            <mxPoint x="1920" y="561.5" as="targetPoint" />
          </mxGeometry>
        </mxCell>
      </root>
    </mxGraphModel>
  </diagram>
</mxfile>
